:FULLY-SPECIFIED
:FORCE-ALL-JOINTS-BE-3DOF
:DEGREES
162
root -1.84889 17.1968 2.22192 1.04724 13.9618 3.28282
lfemur -11.1165 -0.324323 -30.1498
ltibia 30.1819 0 0
lfoot -10.3946 -0.515676 0.0284259
ltoes 1.82914 0 0
rfemur -16.5015 0.148634 15.1926
rtibia 50.0474 0 0
rfoot -4.08261 -1.64546 0.00856193
rtoes -11.7718 0 0
lowerback 7.84395 -0.367428 -3.95444
upperback 0.217039 -0.767611 1.70859
thorax -4.04093 -0.290217 4.07925
lowerneck -15.662 -2.8493 -9.13812
upperneck 22.081 -2.35912 3.35121
head 9.75636 -1.46375 2.39283
lclavicle 1.52468e-14 5.56609e-16 -2.40883e-30
lhumerus -33.7145 15.3139 80.9539
lradius 22.5777 0 0
lwrist -13.3156 0 0
lhand -12.8023 22.4221 -0.0902496
lfingers 7.12502 0 0
lthumb 13.283 51.9638 -0.0899817
rclavicle 1.52468e-14 5.56609e-16 -2.40883e-30
rhumerus -37.6269 -15.0003 -75.5561
rradius 31.615 0 0
rwrist 7.44387 0 0
rhand -12.2056 9.44469 -0.0115052
rfingers 7.12502 0 0
rthumb 13.8584 -20.0656 -0.00942433
163
root -1.81654 17.1913 2.40944 0.966909 14.1518 3.13488
lfemur -10.5293 -0.604411 -29.9552
ltibia 30.6478 0 0
lfoot -10.228 -0.743109 -0.0297872
ltoes 2.79953 0 0
rfemur -17.6405 -0.194284 15.4251
rtibia 51.2098 0 0
rfoot -5.04245 -2.70445 -0.00021648
rtoes -12.9273 0 0
lowerback 7.75816 -0.450965 -3.80221
upperback 0.299847 -0.858359 1.75627
thorax -3.89818 -0.343395 4.0483
lowerneck -15.5078 -2.75929 -9.06728
upperneck 21.9376 -2.243 3.25753
head 9.66683 -1.41221 2.36267
lclavicle 5.56598e-16 8.50802e-15 -8.15112e-31
lhumerus -33.2965 14.9383 81.433
lradius 22.9895 0 0
lwrist -13.4692 0 0
lhand -13.0545 23.1986 -0.0702018
lfingers 7.12502 0 0
lthumb 13.04 52.7571 -0.0704068
rclavicle 5.56598e-16 8.50802e-15 -8.15112e-31
rhumerus -37.6435 -15.0068 -75.6246
rradius 31.599 0 0
rwrist 7.80713 0 0
rhand -13.2925 10.6436 -0.00148611
rfingers 7.12502 0 0
rthumb 12.8111 -18.9404 -0.000837501
164
root -1.78774 17.1788 2.59411 0.953509 14.4011 2.94811
lfemur -10.0453 -0.637683 -29.6419
ltibia 31.154 0 0
lfoot -10.0845 -1.20489 -0.102937
ltoes 2.68432 0 0
rfemur -18.7407 -0.342989 15.6977
rtibia 52.1783 0 0
rfoot -6.04077 -4.29127 -0.00718497
rtoes -12.162 0 0
lowerback 7.68387 -0.453527 -3.61403
upperback 0.367353 -0.840205 1.82879
thorax -3.78585 -0.339757 4.01601
lowerneck -15.5317 -2.85652 -9.22408
upperneck 21.9431 -2.33079 3.24247
head 9.68217 -1.46911 2.37225
lclavicle 7.03201e-15 -1.38354e-14 -4.47167e-30
lhumerus -32.7848 14.5992 81.9426
lradius 23.3084 0 0
lwrist -13.8238 0 0
lhand -13.1344 23.1982 -0.0657273
lfingers 7.12502 0 0
lthumb 12.9628 52.7615 -0.0660881
rclavicle 7.03201e-15 -1.38354e-14 -4.47167e-30
rhumerus -37.8764 -15.382 -75.4618
rradius 31.7755 0 0
rwrist 7.92575 0 0
rhand -14.4283 11.9255 0.000865039
rfingers 7.12502 0 0
rthumb 11.7162 -17.7268 0.000854544
165
root -1.7548 17.1835 2.7784 1.03899 14.6304 3.16136
lfemur -9.58146 -0.619464 -29.744
ltibia 31.7484 0 0
lfoot -9.85077 -1.65963 -0.206495
ltoes 2.76871 0 0
rfemur -20.019 -0.211247 15.3866
rtibia 52.9212 0 0
rfoot -6.66238 -5.1965 -0.0189225
rtoes -8.73931 0 0
lowerback 7.61175 -0.47957 -3.80073
upperback 0.388468 -0.890286 1.83689
thorax -3.708 -0.362167 4.1354
lowerneck -15.5291 -2.9404 -9.35321
upperneck 22.0081 -2.38868 3.1301
head 9.71083 -1.52199 2.34687
lclavicle -5.27078e-14 5.32739e-15 7.41667e-30
lhumerus -32.3996 14.4973 82.3436
lradius 23.5522 0 0
lwrist -14.3477 0 0
lhand -13.4211 22.6106 -0.0711658
lfingers 7.12502 0 0
lthumb 12.6866 52.192 -0.0711497
rclavicle -5.27078e-14 5.32739e-15 7.41667e-30
rhumerus -38.0463 -15.5745 -75.2856
rradius 31.827 0 0
rwrist 7.80466 0 0
rhand -15.6254 12.5395 -0.00358406
rfingers 7.12502 0 0
rthumb 10.5615 -17.1749 -0.00340194
166
root -1.72504 17.1924 2.96169 1.21622 14.7499 3.6227
lfemur -9.2547 -0.64786 -30.1439
ltibia 32.4018 0 0
lfoot -9.22652 -1.92744 -0.35383
ltoes 1.91018 0 0
rfemur -21.3635 -0.16374 14.7859
rtibia 53.4639 0 0
rfoot -6.97316 -5.64997 -0.0263171
rtoes -9.21002 0 0
lowerback 7.58609 -0.498252 -4.25463
upperback 0.329092 -0.96023 1.73806
thorax -3.73626 -0.387422 4.29743
lowerneck -15.2596 -2.81951 -9.23201
upperneck 22.046 -2.26847 3.08081
head 9.66198 -1.46419 2.3266
lclavicle 1.84721e-14 -9.22359e-15 -2.39838e-31
lhumerus -32.2697 14.4697 82.5023
lradius 23.8506 0 0
lwrist -14.6428 0 0
lhand -14.0411 22.4086 -0.0716556
lfingers 7.12502 0 0
lthumb 12.0889 52.0266 -0.0714309
rclavicle 1.84721e-14 -9.22359e-15 -2.39838e-31
rhumerus -38.3039 -15.576 -75.2393
rradius 31.7913 0 0
rwrist 7.4355 0 0
rhand -16.118 12.3968 -0.00560876
rfingers 7.12502 0 0
rthumb 10.0863 -17.3408 -0.00530749
